[Header]			# Header keywords are followed by a single value
FileType htr		# single word string
DataType HTRS		# Hierarchical translations followed by rotations and Scale
FileVersion 1		# integer
NumSegments 20		# integer
NumFrames 6		# integer
DataFrameRate 60	# integer
EulerRotationOrder ZYX	# one word string
CalibrationUnits mm	# one word string
RotationUnits Degrees	# one word string
GlobalAxisofGravity Y	# character, X or Y or Z
BoneLengthAxis Y
ScaleFactor 1.000000
[SegmentNames&Hierarchy]
#CHILD	PARENT
LowerTorso	GLOBAL
UpperTorso	LowerTorso
LCollarBone	UpperTorso
RCollarBone	UpperTorso
LUpArm	LCollarBone
RUpArm	RCollarBone
LLowArm	LUpArm
RLowArm	RUpArm
LHand	LLowArm
RHand	RLowArm
LPelvis	LowerTorso
RPelvis	LowerTorso
LThigh	LPelvis
RThigh	RPelvis
LLowLeg	LThigh
RLowLeg	RThigh
LFoot	LLowLeg
RFoot	RLowLeg
Neck	UpperTorso
Head	Neck
[BasePosition]
#SegmentName Tx, Ty, Tz, Rx, Ry, Rz, BoneLength
LowerTorso	0.000000	0.000000	0.000000	0.000000	0.000000	0.000000	247.497849
UpperTorso	0.000000	247.497849	0.000000	-3.483188	-0.016176	-0.898562	303.935425
LCollarBone	0.000000	303.935425	0.000000	-2.778975	2.380151	-103.909637	160.814774
RCollarBone	0.000000	303.935425	0.000000	1.923138	-2.431442	97.423370	173.085861
LUpArm	0.000000	160.814774	0.000000	9.905276	-0.146364	3.830753	266.228302
RUpArm	0.000000	173.085861	0.000000	3.559436	0.163580	4.186032	250.544907
LLowArm	0.000000	266.228302	0.000000	0.604391	2.460426	18.478745	239.401855
RLowArm	0.000000	250.544907	0.000000	-4.677841	-1.676118	-16.763147	247.676224
LHand	0.000000	239.401855	0.000000	-2.922581	-1.504997	-10.879651	178.693573
RHand	0.000000	247.676224	0.000000	8.087741	0.221451	14.771751	171.097885
LPelvis	0.000000	0.000000	0.000000	25.628080	-1.004481	-103.107483	127.213554
RPelvis	0.000000	0.000000	0.000000	7.212610	1.026056	95.806335	154.731140
LThigh	0.000000	127.213554	0.000000	-8.629928	-24.934669	-78.343170	392.414856
RThigh	0.000000	154.731140	0.000000	-0.087953	7.045837	82.361420	403.151337
LLowLeg	0.000000	392.414856	0.000000	-11.135172	-0.396179	6.207254	411.539612
RLowLeg	0.000000	403.151337	0.000000	-15.879393	-0.038285	-2.567663	396.965240
LFoot	0.000000	411.539612	0.000000	86.993790	-9.419292	-7.421347	182.020935
RFoot	0.000000	396.965240	0.000000	85.685738	19.489246	8.810133	181.714371
Neck	0.000000	303.935425	0.000000	26.917892	0.010495	-0.245093	141.112030
Head	0.000000	141.112030	0.000000	-34.290924	-1.751020	-3.852423	164.098740
#Beginning of Data. Separated by tabs.
[LowerTorso]
#Fr	Tx	Ty	Tz	Rx	Ry	Rz	SF
937	212.068832	805.224915	-105.168503	5.344520	-42.025784	-1.207640	1.000000
938	194.763290	802.580933	-95.376953	5.630511	-41.920635	-1.330608	1.000000
939	178.280411	801.273071	-85.606499	6.205706	-42.223656	-1.970360	1.000000
940	162.285950	800.998047	-75.490540	6.824026	-42.722610	-2.869385	1.000000
941	146.081833	801.169312	-64.911461	7.158945	-43.188889	-3.614256	1.000000
942	129.256042	801.335144	-54.067810	7.000826	-43.464565	-3.888722	1.000000
[UpperTorso]
#Fr	Tx	Ty	Tz	Rx	Ry	Rz	SF
937	0.000000	0.000000	0.000000	6.351381	-16.698120	1.271222	1.000000
938	0.000000	0.000000	0.000000	6.646798	-16.306953	2.281663	1.000000
939	0.000000	0.000000	0.000000	7.261598	-15.721248	3.740242	1.000000
940	0.000000	0.000000	0.000000	8.146864	-15.186007	5.361313	1.000000
941	0.000000	0.000000	0.000000	9.155540	-14.918824	6.750875	1.000000
942	0.000000	0.000000	0.000000	10.123877	-14.972919	7.608163	1.000000
[LCollarBone]
#Fr	Tx	Ty	Tz	Rx	Ry	Rz	SF
937	0.000000	0.000000	0.000000	0.118552	-0.031831	1.657271	1.000000
938	0.000000	0.000000	0.000000	1.748569	0.532173	-1.018874	1.000000
939	0.000000	0.000000	0.000000	3.641846	1.383021	-4.060282	1.000000
940	0.000000	0.000000	0.000000	5.635963	2.481864	-7.039504	1.000000
941	0.000000	0.000000	0.000000	7.644270	3.743081	-9.566466	1.000000
942	0.000000	0.000000	0.000000	9.562547	5.008110	-11.347099	1.000000
[RCollarBone]
#Fr	Tx	Ty	Tz	Rx	Ry	Rz	SF
937	0.000000	0.000000	0.000000	-10.497742	2.017480	2.531458	1.000000
938	0.000000	0.000000	0.000000	-9.829246	2.252433	4.208270	1.000000
939	0.000000	0.000000	0.000000	-8.510639	2.331307	6.106771	1.000000
940	0.000000	0.000000	0.000000	-6.646391	2.159783	7.931865	1.000000
941	0.000000	0.000000	0.000000	-4.288308	1.686761	9.502556	1.000000
942	0.000000	0.000000	0.000000	-1.611340	0.948358	10.683647	1.000000
[LUpArm]
#Fr	Tx	Ty	Tz	Rx	Ry	Rz	SF
937	0.000000	0.000000	0.000000	-12.142960	-3.654267	-24.918581	1.000000
938	0.000000	0.000000	0.000000	-12.028921	-1.822044	-27.335352	1.000000
939	0.000000	0.000000	0.000000	-11.680316	0.266506	-29.532925	1.000000
940	0.000000	0.000000	0.000000	-11.017586	2.478993	-31.743950	1.000000
941	0.000000	0.000000	0.000000	-10.028352	4.822850	-34.058025	1.000000
942	0.000000	0.000000	0.000000	-8.633428	7.303226	-36.453945	1.000000
[RUpArm]
#Fr	Tx	Ty	Tz	Rx	Ry	Rz	SF
937	0.000000	0.000000	0.000000	-14.672138	5.564130	20.543011	1.000000
938	0.000000	0.000000	0.000000	-13.091540	4.568176	23.181171	1.000000
939	0.000000	0.000000	0.000000	-11.760343	3.706744	25.039459	1.000000
940	0.000000	0.000000	0.000000	-10.318100	2.551474	26.594933	1.000000
941	0.000000	0.000000	0.000000	-8.635843	0.781944	28.167675	1.000000
942	0.000000	0.000000	0.000000	-6.633200	-1.737626	29.837515	1.000000
[LLowArm]
#Fr	Tx	Ty	Tz	Rx	Ry	Rz	SF
937	0.000000	0.000000	0.000000	-0.217551	0.033207	-0.004686	1.000000
938	0.000000	0.000000	0.000000	1.228425	-0.187829	0.024097	1.000000
939	0.000000	0.000000	0.000000	2.566567	-0.392979	0.045757	1.000000
940	0.000000	0.000000	0.000000	3.866202	-0.592663	0.062203	1.000000
941	0.000000	0.000000	0.000000	5.141434	-0.788911	0.073934	1.000000
942	0.000000	0.000000	0.000000	6.516604	-1.000769	0.081687	1.000000
[RLowArm]
#Fr	Tx	Ty	Tz	Rx	Ry	Rz	SF
937	0.000000	0.000000	0.000000	-1.290435	-0.113933	0.003010	1.000000
938	0.000000	0.000000	0.000000	-1.513960	-0.133660	0.003793	1.000000
939	0.000000	0.000000	0.000000	-0.588838	-0.051997	0.001056	1.000000
940	0.000000	0.000000	0.000000	0.987936	0.087255	-0.000571	1.000000
941	0.000000	0.000000	0.000000	2.844845	0.251228	0.002429	1.000000
942	0.000000	0.000000	0.000000	4.897988	0.432304	0.011928	1.000000
[LHand]
#Fr	Tx	Ty	Tz	Rx	Ry	Rz	SF
937	0.000000	0.000000	0.000000	7.922668	-12.364602	-1.549972	1.000000
938	0.000000	0.000000	0.000000	6.598115	-11.079754	-2.350341	1.000000
939	0.000000	0.000000	0.000000	5.818069	-10.525140	-2.932552	1.000000
940	0.000000	0.000000	0.000000	5.682583	-10.769704	-3.526141	1.000000
941	0.000000	0.000000	0.000000	6.253688	-11.691311	-4.385845	1.000000
942	0.000000	0.000000	0.000000	7.494772	-12.970173	-5.639601	1.000000
[RHand]
#Fr	Tx	Ty	Tz	Rx	Ry	Rz	SF
937	0.000000	0.000000	0.000000	5.212701	19.600281	-14.240868	1.000000
938	0.000000	0.000000	0.000000	6.335027	20.367819	-11.476501	1.000000
939	0.000000	0.000000	0.000000	6.738842	20.839613	-9.378638	1.000000
940	0.000000	0.000000	0.000000	6.775045	21.147909	-7.873015	1.000000
941	0.000000	0.000000	0.000000	6.981740	21.319443	-6.682377	1.000000
942	0.000000	0.000000	0.000000	7.757836	21.362757	-5.566639	1.000000
[LPelvis]
#Fr	Tx	Ty	Tz	Rx	Ry	Rz	SF
937	0.000000	0.000000	0.000000	0.000000	0.000000	0.000000	1.000000
938	0.000000	0.000000	0.000000	0.000000	0.000000	0.000000	1.000000
939	0.000000	0.000000	0.000000	0.000000	0.000000	0.000000	1.000000
940	0.000000	0.000000	0.000000	0.000000	0.000000	0.000000	1.000000
941	0.000000	0.000000	0.000000	0.000000	0.000000	0.000000	1.000000
942	0.000000	0.000000	0.000000	0.000000	0.000000	0.000000	1.000000
[RPelvis]
#Fr	Tx	Ty	Tz	Rx	Ry	Rz	SF
937	0.000000	0.000000	0.000000	0.000000	0.000000	0.000000	1.000000
938	0.000000	0.000000	0.000000	0.000000	0.000000	0.000000	1.000000
939	0.000000	0.000000	0.000000	0.000000	0.000000	0.000000	1.000000
940	0.000000	0.000000	0.000000	0.000000	0.000000	0.000000	1.000000
941	0.000000	0.000000	0.000000	0.000000	0.000000	0.000000	1.000000
942	0.000000	0.000000	0.000000	0.000000	0.000000	0.000000	1.000000
[LThigh]
#Fr	Tx	Ty	Tz	Rx	Ry	Rz	SF
937	0.000000	0.000000	0.000000	-11.241437	8.538141	-6.858338	1.000000
938	0.000000	0.000000	0.000000	-11.297460	7.840334	-5.902225	1.000000
939	0.000000	0.000000	0.000000	-10.883674	7.178358	-4.799265	1.000000
940	0.000000	0.000000	0.000000	-9.957180	6.646654	-3.724208	1.000000
941	0.000000	0.000000	0.000000	-8.440101	6.026580	-2.753836	1.000000
942	0.000000	0.000000	0.000000	-6.331743	5.165542	-1.945273	1.000000
[RThigh]
#Fr	Tx	Ty	Tz	Rx	Ry	Rz	SF
937	0.000000	0.000000	0.000000	38.848938	7.187932	9.551890	1.000000
938	0.000000	0.000000	0.000000	39.271816	6.563441	10.036217	1.000000
939	0.000000	0.000000	0.000000	40.180729	5.671360	10.684779	1.000000
940	0.000000	0.000000	0.000000	41.038406	4.922675	11.485626	1.000000
941	0.000000	0.000000	0.000000	41.375374	4.615292	12.296036	1.000000
942	0.000000	0.000000	0.000000	41.048798	4.778747	12.934239	1.000000
[LLowLeg]
#Fr	Tx	Ty	Tz	Rx	Ry	Rz	SF
937	0.000000	0.000000	0.000000	-19.053650	1.573161	0.144452	1.000000
938	0.000000	0.000000	0.000000	-20.630154	1.703926	0.132848	1.000000
939	0.000000	0.000000	0.000000	-22.986320	1.898622	0.108808	1.000000
940	0.000000	0.000000	0.000000	-26.288082	2.169392	0.061695	1.000000
941	0.000000	0.000000	0.000000	-30.568703	2.515495	-0.022461	1.000000
942	0.000000	0.000000	0.000000	-35.591621	2.912069	-0.153819	1.000000
[RLowLeg]
#Fr	Tx	Ty	Tz	Rx	Ry	Rz	SF
937	0.000000	0.000000	0.000000	-11.190126	-0.626515	-0.104064	1.000000
938	0.000000	0.000000	0.000000	-13.469917	-0.755958	-0.110159	1.000000
939	0.000000	0.000000	0.000000	-16.332645	-0.918667	-0.110513	1.000000
940	0.000000	0.000000	0.000000	-19.574818	-1.102688	-0.101099	1.000000
941	0.000000	0.000000	0.000000	-22.591082	-1.273144	-0.083007	1.000000
942	0.000000	0.000000	0.000000	-24.983963	-1.407539	-0.062288	1.000000
[LFoot]
#Fr	Tx	Ty	Tz	Rx	Ry	Rz	SF
937	0.000000	0.000000	0.000000	10.544427	-9.378959	-21.487597	1.000000
938	0.000000	0.000000	0.000000	9.032380	-10.560356	-23.042715	1.000000
939	0.000000	0.000000	0.000000	6.945609	-11.900300	-24.187378	1.000000
940	0.000000	0.000000	0.000000	4.002496	-13.551726	-24.935835	1.000000
941	0.000000	0.000000	0.000000	-0.131000	-15.804170	-25.355892	1.000000
942	0.000000	0.000000	0.000000	-5.546677	-18.551975	-25.040735	1.000000
[RFoot]
#Fr	Tx	Ty	Tz	Rx	Ry	Rz	SF
937	0.000000	0.000000	0.000000	-7.968142	-2.966604	-0.882302	1.000000
938	0.000000	0.000000	0.000000	-7.017832	-3.528330	-2.297478	1.000000
939	0.000000	0.000000	0.000000	-7.137318	-4.122034	-3.193008	1.000000
940	0.000000	0.000000	0.000000	-7.772766	-4.428669	-3.290069	1.000000
941	0.000000	0.000000	0.000000	-7.888331	-4.244375	-2.928103	1.000000
942	0.000000	0.000000	0.000000	-6.790117	-3.653465	-2.639604	1.000000
[Neck]
#Fr	Tx	Ty	Tz	Rx	Ry	Rz	SF
937	0.000000	0.000000	0.000000	1.254658	-4.073010	3.306812	1.000000
938	0.000000	0.000000	0.000000	0.190112	-4.050074	3.195099	1.000000
939	0.000000	0.000000	0.000000	-1.059964	-4.068277	2.909783	1.000000
940	0.000000	0.000000	0.000000	-2.364854	-4.095113	2.482332	1.000000
941	0.000000	0.000000	0.000000	-3.522003	-4.086125	1.997940	1.000000
942	0.000000	0.000000	0.000000	-4.389049	-4.000345	1.547776	1.000000
[Head]
#Fr	Tx	Ty	Tz	Rx	Ry	Rz	SF
937	0.000000	0.000000	0.000000	3.319782	-10.251944	0.604093	1.000000
938	0.000000	0.000000	0.000000	1.193247	-10.234391	0.601595	1.000000
939	0.000000	0.000000	0.000000	-1.280244	-10.123851	0.289198	1.000000
940	0.000000	0.000000	0.000000	-3.845932	-9.899566	-0.261862	1.000000
941	0.000000	0.000000	0.000000	-6.130594	-9.545049	-0.901717	1.000000
942	0.000000	0.000000	0.000000	-7.854674	-9.077586	-1.454187	1.000000
[EndOfFile]
